{"title":"Mercur S01 E01 - 720p x265 HEVC - DAN (ENG SUBS) [BRSHNKV]","magnet":"magnet:?xt=urn:btih:0d9363194199d77bee917dd671084c2512dd2a66&dn=Mercur+S01+E01+-+720p+x265+HEVC+-+DAN+%28ENG+SUBS%29+%5BBRSHNKV%5D&tr=udp%3A%2F%2Ftracker.leechers-paradise.org%3A6969&tr=udp%3A%2F%2Fzer0day.ch%3A1337&tr=udp%3A%2F%2Fopen.demonii.com%3A1337&tr=udp%3A%2F%2Ftracker.coppersurfer.tk%3A6969&tr=udp%3A%2F%2Fexodus.desync.com%3A6969","uploader":"BRSHNKV","categoryP":"video","categoryS":"hd___tv_shows","size":"432729126","seeders":"4","leechers":"5","description":" <a href=\"https://www.imdb.com/title/tt6416550/?ref_=rvi_tt\" rel=\"nofollow\" target=\"_NEW\">https://www.imdb.com/title/tt6416550/?ref_=rvi_tt</a>\r\n\r\nFormat : MPEG-4 \r\nFormat profile : Base Media / Version 2 \r\nCodec ID : mp42 \r\nFile size : 413 MiB \r\nDuration : 42mn 6s \r\nOverall bit rate mode : Variable \r\nOverall bit rate : 1 370 Kbps \r\nMovie name : Mercur S01 E01 - x265 HEVC [BRSHNKV] \r\nEncoded date : UTC 2018-04-06 12:05:27 \r\nTagged date : UTC 2018-04-06 12:05:27 \r\nWriting application : HandBrake 20160211184813-ffd8cb1-master 2016021301 \r\n\r\nVideo \r\nID : 1 \r\nFormat : HEVC \r\nFormat/Info : High Efficiency Video Coding \r\nFormat profile : Main <a href=\"/cdn-cgi/l/email-protection\" class=\"__cf_email__\" data-cfemail=\"f5c4c5b5b9c6dbc4\">[email&#xA0;protected]</a>@Main \r\nCodec ID : hev1 \r\nCodec ID/Info : High Efficiency Video Coding \r\nDuration : 42mn 6s \r\nBit rate : 1 201 Kbps \r\nWidth : 1 024 pixels \r\nHeight : 576 pixels \r\nDisplay aspect ratio : 16:9 \r\nFrame rate mode : Constant \r\nFrame rate : 25.000 fps \r\nColor space : YUV \r\nChroma subsampling : 4:2:0 \r\nBit depth : 10 bits \r\nBits/(Pixel*Frame) : 0.081 \r\nStream size : 362 MiB (88%) \r\nWriting library : x265 1.9:[Mac OS X][clang 7.0.2][64 bit] 10bit \r\nEncoded date : UTC 2018-04-06 12:05:27 \r\nTagged date : UTC 2018-04-06 12:05:27 \r\nColor range : Limited \r\nColor primaries : BT.601 PAL \r\nTransfer characteristics : BT.709 \r\nMatrix coefficients : BT.601 \r\n\r\nAudio \r\nID : 2 \r\nFormat : AAC \r\nFormat/Info : Advanced Audio Codec \r\nFormat profile : LC \r\nCodec ID : 40 \r\nDuration : 42mn 6s \r\nBit rate mode : Variable \r\nBit rate : 163 Kbps \r\nChannel(s) : 2 channels \r\nChannel positions : Front: L R \r\nSampling rate : 48.0 KHz \r\nCompression mode : Lossy \r\nStream size : 49.1 MiB (12%) \r\nTitle : Stereo / Stereo \r\nLanguage : Danish \r\nEncoded date : UTC 2018-04-06 12:05:27 \r\nTagged date : UTC 2018-04-06 12:05:27","last_updated":"2018-04-17T13:21:39.480Z","parsed":{"xt":"urn:btih:0d9363194199d77bee917dd671084c2512dd2a66","dn":"Mercur S01 E01 - 720p x265 HEVC - DAN (ENG SUBS) [BRSHNKV]","tr":["udp://exodus.desync.com:6969","udp://open.demonii.com:1337","udp://tracker.coppersurfer.tk:6969","udp://tracker.leechers-paradise.org:6969","udp://zer0day.ch:1337"],"infoHash":"0d9363194199d77bee917dd671084c2512dd2a66","infoHashBuffer":{"type":"Buffer","data":[13,147,99,25,65,153,215,123,238,145,125,214,113,8,76,37,18,221,42,102]},"name":"Mercur S01 E01 - 720p x265 HEVC - DAN (ENG SUBS) [BRSHNKV]","announce":["udp://exodus.desync.com:6969","udp://open.demonii.com:1337","udp://tracker.coppersurfer.tk:6969","udp://tracker.leechers-paradise.org:6969","udp://zer0day.ch:1337"],"urlList":[]}}